<svg fill="#FFBC5E" xmlns="http://www.w3.org/2000/svg" width="16" height="16"><path fill-rule="evenodd" d="M7 3a1 1 0 0 0-.223.023C5.237 3.141 4 4.432 4 6c0 1.57 1.24 2.864 2.783 2.979A1 1 0 0 0 7 9h2c.571 0 1 .429 1 1s-.429 1-1 1H5a1 1 0 1 0 0 2h4a1 1 0 0 0 .223-.023C10.763 12.859 12 11.569 12 10c0-1.57-1.24-2.864-2.783-2.979A1 1 0 0 0 9 7H7c-.571 0-1-.429-1-1s.429-1 1-1h4a1 1 0 1 0 0-2H7z" color="#000" font-family="sans-serif" font-weight="400" overflow="visible" style="line-height:normal;text-indent:0;text-align:start;text-decoration-line:none;text-decoration-style:solid;text-decoration-color:#000;text-transform:none;block-progression:tb;white-space:normal;isolation:auto;mix-blend-mode:normal;solid-color:#000;solid-opacity:1"/></svg>